<?xml version="1.0" encoding="UTF-8" standalone="no"?>
<svg width="106px" height="106px" viewBox="0 0 106 106" version="1.1" xmlns="http://www.w3.org/2000/svg" xmlns:xlink="http://www.w3.org/1999/xlink">
    <!-- Generator: sketchtool 39.1 (31720) - http://www.bohemiancoding.com/sketch -->
    <title>7A1A7DE3-6C84-4BF7-AEFA-32A49E98AE01</title>
    <desc>Created with sketchtool.</desc>
    <defs/>
    <g id="Page-1" stroke="none" stroke-width="1" fill="none" fill-rule="evenodd">
        <g id="logos-iconos" transform="translate(-761.000000, -607.000000)">
            <g id="Group-17" transform="translate(761.000000, 607.000000)">
                <g id="icons-youtube">
                    <g id="Layer_1">
                        <g id="Lozenge_10_" transform="translate(23.000000, 32.000000)"/>
                        <path d="M101.842,0.877 L4.018,0.877 C2.09,0.877 0.522,2.445 0.522,4.374 L0.522,102.197 C0.522,104.125 2.09,105.693 4.018,105.693 L101.842,105.693 C103.77,105.693 105.338,104.125 105.338,102.197 L105.338,4.374 C105.338,2.445 103.77,0.877 101.842,0.877 L101.842,0.877 Z" id="Shape" fill="#D02121"/>
                        <path d="M81.486,41.374 C81.486,41.374 80.917,37.365 79.173,35.599 C76.961,33.282 74.481,33.271 73.343,33.134 C65.201,32.546 52.989,32.546 52.989,32.546 L52.963,32.546 C52.963,32.546 40.75,32.546 32.608,33.134 C31.47,33.271 28.992,33.281 26.778,35.599 C25.034,37.366 24.466,41.374 24.466,41.374 C24.466,41.374 23.884,46.082 23.884,50.792 L23.884,55.205 C23.884,59.914 24.466,64.622 24.466,64.622 C24.466,64.622 25.033,68.632 26.778,70.397 C28.992,72.714 31.899,72.641 33.194,72.884 C37.849,73.33 52.976,73.468 52.976,73.468 C52.976,73.468 65.203,73.449 73.344,72.862 C74.482,72.726 76.962,72.715 79.174,70.397 C80.918,68.631 81.487,64.622 81.487,64.622 C81.487,64.622 82.067,59.914 82.067,55.205 L82.067,50.792 C82.066,46.082 81.486,41.374 81.486,41.374 L81.486,41.374 Z M46.969,60.555 L46.965,44.206 L62.688,52.408 L46.969,60.555 L46.969,60.555 Z" id="Shape" fill="#FFFFFF"/>
                        <polygon id="The_Sharpness_5_" fill="#420000" opacity="0.461184701" points="46.965 44.206 60.753 53.413 62.688 52.408"/>
                    </g>
                </g>
            </g>
        </g>
    </g>
</svg>