<?xml version="1.0" encoding="UTF-8" standalone="no"?>
<svg width="106px" height="106px" viewBox="0 0 106 106" version="1.1" xmlns="http://www.w3.org/2000/svg" xmlns:xlink="http://www.w3.org/1999/xlink">
    <!-- Generator: sketchtool 39.1 (31720) - http://www.bohemiancoding.com/sketch -->
    <title>2DD4B7A9-036B-4138-8D39-33BC2C9B4A1F</title>
    <desc>Created with sketchtool.</desc>
    <defs>
        <path d="M4.018,0.877 C2.09,0.877 0.522,2.445 0.522,4.374 L0.522,102.197 C0.522,104.125 2.09,105.693 4.018,105.693 L101.842,105.693 C103.77,105.693 105.338,104.125 105.338,102.197 L105.338,4.374 C105.338,2.445 103.77,0.877 101.842,0.877 L4.018,0.877 Z" id="path-1"/>
        <radialGradient cx="9.72621195%" cy="102.754112%" fx="9.72621195%" fy="102.754112%" r="132.581648%" id="radialGradient-3">
            <stop stop-color="#FEC053" offset="0%"/>
            <stop stop-color="#F2203E" offset="32.73%"/>
            <stop stop-color="#B729A8" offset="64.85%"/>
            <stop stop-color="#5342D6" offset="100%"/>
        </radialGradient>
    </defs>
    <g id="Page-1" stroke="none" stroke-width="1" fill="none" fill-rule="evenodd">
        <g id="logos-iconos" transform="translate(-598.000000, -607.000000)">
            <g id="icons-instagram" transform="translate(436.000000, 563.000000)">
                <g id="Group-16" transform="translate(162.000000, 44.000000)">
                    <g id="Layer_1">
                        <g id="Shape">
                            <mask id="mask-2" fill="white">
                                <use xlink:href="#path-1"/>
                            </mask>
                            <use id="Mask" fill="#000000" xlink:href="#path-1"/>
                            <path d="M110.625404,99.7456 C110.625404,105.56 105.653064,110.275 99.5237447,110.275 L10.1016596,110.275 C3.96991489,110.275 -1,105.56 -1,99.7456 L-1,7.5271 C-1,1.7127 3.96991489,-3 10.1016596,-3 L99.5213191,-3 C105.650638,-3 110.622979,1.7127 110.622979,7.5271 L110.622979,99.7456 L110.625404,99.7456 Z" fill="url(#radialGradient-3)" mask="url(#mask-2)"/>
                        </g>
                        <path d="M67.004,77.986 L38.992,77.986 C33.212,77.986 28.51,73.285 28.51,67.506 L28.51,39.495 C28.51,33.715 33.212,29.013 38.992,29.013 L67.004,29.013 C72.784,29.013 77.486,33.715 77.486,39.495 L77.486,67.506 C77.486,73.285 72.784,77.986 67.004,77.986 L67.004,77.986 Z M38.992,34.73 C36.364,34.73 34.227,36.867 34.227,39.495 L34.227,67.506 C34.227,70.133 36.364,72.27 38.992,72.27 L67.004,72.27 C69.632,72.27 71.768,70.133 71.768,67.506 L71.768,39.495 C71.768,36.867 69.632,34.73 67.004,34.73 L38.992,34.73 L38.992,34.73 Z" id="Shape" fill="#FFFFFF"/>
                        <path d="M52.998,67.027 C45.538,67.027 39.469,60.959 39.469,53.5 C39.469,46.039 45.538,39.971 52.998,39.971 C60.459,39.971 66.527,46.039 66.527,53.5 C66.527,60.959 60.459,67.027 52.998,67.027 L52.998,67.027 Z M52.998,45.688 C48.69,45.688 45.186,49.192 45.186,53.5 C45.186,57.806 48.691,61.31 52.998,61.31 C57.305,61.31 60.81,57.806 60.81,53.5 C60.81,49.192 57.306,45.688 52.998,45.688 L52.998,45.688 Z" id="Shape" fill="#FFFFFF"/>
                        <circle id="Oval" fill="#FFFFFF" cx="66.846" cy="40.394" r="2.436"/>
                    </g>
                </g>
            </g>
        </g>
    </g>
</svg>