<?xml version="1.0" encoding="UTF-8" standalone="no"?>
<svg width="106px" height="106px" viewBox="0 0 106 106" version="1.1" xmlns="http://www.w3.org/2000/svg" xmlns:xlink="http://www.w3.org/1999/xlink">
    <!-- Generator: sketchtool 39.1 (31720) - http://www.bohemiancoding.com/sketch -->
    <title>F00AD83E-6D3C-448B-AB6D-86A57D78776E</title>
    <desc>Created with sketchtool.</desc>
    <defs/>
    <g id="Page-1" stroke="none" stroke-width="1" fill="none" fill-rule="evenodd">
        <g id="logos-iconos" transform="translate(-107.000000, -422.000000)">
            <g id="Group-18" transform="translate(107.000000, 422.000000)">
                <g id="icons-facebook">
                    <g id="Layer_1">
                        <g id="Group">
                            <path d="M68.465,29.969 L63.762,29.971 C57.358,29.971 56.537,33.778 56.537,37.094 L56.537,45.981 L67.857,45.981 L66.734,54.698 L56.537,54.698 L56.537,84.548 L47.441,84.548 L47.441,54.698 L37.396,54.698 L37.396,45.98 L47.441,45.98 L47.441,35.941 C47.441,27.226 52.49,22.023 60.945,22.023 C64.015,22.023 66.799,22.191 68.465,22.337 L68.465,29.969 L68.465,29.969 Z" id="Shape" fill="#3D5A98"/>
                            <g id="Shape">
                                <path d="M101.842,0.877 L4.018,0.877 C2.09,0.877 0.522,2.445 0.522,4.374 L0.522,102.197 C0.522,104.125 2.09,105.693 4.018,105.693 L101.842,105.693 C103.77,105.693 105.338,104.125 105.338,102.197 L105.338,4.374 C105.338,2.445 103.77,0.877 101.842,0.877 L101.842,0.877 Z M102.42,102.197 C102.42,102.515 102.16,102.775 101.842,102.775 L4.018,102.775 C3.7,102.775 3.44,102.515 3.44,102.197 L3.44,4.374 C3.44,4.055 3.7,3.795 4.018,3.795 L101.842,3.795 C102.16,3.795 102.42,4.055 102.42,4.374 L102.42,102.197 L102.42,102.197 Z" fill="#000000"/>
                                <path d="M68.465,29.969 L63.762,29.971 C57.358,29.971 56.537,33.778 56.537,37.094 L56.537,45.981 L67.857,45.981 L66.734,54.697 L56.537,54.697 L56.537,84.548 L47.441,84.548 L47.441,54.696 L37.396,54.696 L37.396,45.98 L47.441,45.98 L47.441,35.941 C47.441,27.226 52.49,22.023 60.945,22.023 C64.015,22.023 66.799,22.191 68.465,22.337 L68.465,29.969 L68.465,29.969 Z" fill="#3D5A98"/>
                            </g>
                        </g>
                    </g>
                </g>
            </g>
        </g>
    </g>
</svg>