<?xml version="1.0" encoding="UTF-8" standalone="no"?>
<svg width="106px" height="106px" viewBox="0 0 106 106" version="1.1" xmlns="http://www.w3.org/2000/svg" xmlns:xlink="http://www.w3.org/1999/xlink">
    <!-- Generator: sketchtool 39.1 (31720) - http://www.bohemiancoding.com/sketch -->
    <title>10135DA2-3BD9-4602-B398-82B713B35CD7</title>
    <desc>Created with sketchtool.</desc>
    <defs>
        <polygon id="path-1" points="52.6195449 105.052 105.239 105.052 105.239 0 52.6195449 0 8.97469235e-05 1.42108547e-14 8.97469235e-05 105.052"/>
    </defs>
    <g id="Page-1" stroke="none" stroke-width="1" fill="none" fill-rule="evenodd">
        <g id="logos-iconos" transform="translate(-1368.000000, -570.000000)">
            <g id="Group-25" transform="translate(1368.000000, 570.000000)">
                <g id="Page-1">
                    <mask id="mask-2" fill="white">
                        <use xlink:href="#path-1"/>
                    </mask>
                    <g id="Clip-2"/>
                    <path d="M89.4873,48.22 L89.4873,101.48 L3.2633,101.48 L3.2633,48.22 L79.0373,48.22 L46.7383,81.857 L25.4663,59.636 C24.7043,58.952 23.4803,58.954 22.7233,59.635 C21.8573,60.41 21.7553,61.776 22.5193,62.708 L45.2603,86.466 C45.6573,86.878 46.1853,87.106 46.7473,87.106 C47.3083,87.106 47.8373,86.878 48.2333,86.466 L84.9653,48.22 L89.4873,48.22 Z M22.9753,30.203 C22.9753,14.904 32.8673,3.573 46.3763,3.573 C59.8833,3.573 69.7763,14.904 69.7763,30.203 L69.7763,44.647 L22.9753,44.647 L22.9753,30.203 Z M104.6323,24.678 C103.8363,23.845 102.4363,23.845 101.6423,24.677 L82.4663,44.647 L73.0423,44.647 L73.0423,30.203 C73.0423,13.494 61.1293,0 46.3763,0 C31.6233,0 19.7093,13.494 19.7093,30.203 L19.7093,44.647 L1.1583,44.647 C1.0873,44.64 1.0143,44.64 0.9423,44.647 C0.4113,44.762 -0.0107,45.348 0.0003,45.961 L0.0003,103.739 C0.0003,104.426 0.5523,105.052 1.1583,105.052 L91.5923,105.052 C92.1993,105.052 92.7523,104.426 92.7523,103.739 L92.7523,45.961 C92.7523,45.273 92.1993,44.647 91.5923,44.647 L88.3953,44.647 L104.6323,27.741 C105.4413,26.896 105.4413,25.522 104.6323,24.678 L104.6323,24.678 Z" id="Fill-1" fill="#000000" mask="url(#mask-2)"/>
                </g>
            </g>
        </g>
    </g>
</svg>