<?xml version="1.0" encoding="UTF-8" standalone="no"?>
<svg width="105px" height="106px" viewBox="0 0 105 106" version="1.1" xmlns="http://www.w3.org/2000/svg" xmlns:xlink="http://www.w3.org/1999/xlink">
    <!-- Generator: sketchtool 39.1 (31720) - http://www.bohemiancoding.com/sketch -->
    <title>E12DD231-61FD-48A0-94D8-E96DB79474F7</title>
    <desc>Created with sketchtool.</desc>
    <defs>
        <radialGradient cx="9.72496733%" cy="102.754579%" fx="9.72496733%" fy="102.754579%" r="132.576976%" id="radialGradient-1">
            <stop stop-color="#FEC053" offset="0%"/>
            <stop stop-color="#F2203E" offset="32.73%"/>
            <stop stop-color="#B729A8" offset="64.85%"/>
            <stop stop-color="#5342D6" offset="100%"/>
        </radialGradient>
        <radialGradient cx="-22.8974795%" cy="145.487138%" fx="-22.8974795%" fy="145.487138%" r="239.962673%" id="radialGradient-2">
            <stop stop-color="#FEC053" offset="0%"/>
            <stop stop-color="#F2203E" offset="32.73%"/>
            <stop stop-color="#B729A8" offset="64.85%"/>
            <stop stop-color="#5342D6" offset="100%"/>
        </radialGradient>
        <radialGradient cx="-639.051724%" cy="849.320608%" fx="-639.051724%" fy="849.320608%" r="1332.70731%" id="radialGradient-3">
            <stop stop-color="#FEC053" offset="0%"/>
            <stop stop-color="#F2203E" offset="32.73%"/>
            <stop stop-color="#B729A8" offset="64.85%"/>
            <stop stop-color="#5342D6" offset="100%"/>
        </radialGradient>
    </defs>
    <g id="Page-1" stroke="none" stroke-width="1" fill="none" fill-rule="evenodd">
        <g id="logos-iconos" transform="translate(-598.000000, -422.000000)">
            <g id="Group-22" transform="translate(597.000000, 422.000000)">
                <g id="icons-instagram" transform="translate(0.500000, 0.000000)">
                    <g id="Layer_1">
                        <path d="M101.842,0.877 L4.018,0.877 C2.09,0.877 0.522,2.445 0.522,4.374 L0.522,102.197 C0.522,104.125 2.09,105.693 4.018,105.693 L101.842,105.693 C103.77,105.693 105.338,104.125 105.338,102.197 L105.338,4.374 C105.338,2.445 103.77,0.877 101.842,0.877 L101.842,0.877 Z M102.42,102.197 C102.42,102.515 102.16,102.775 101.842,102.775 L4.018,102.775 C3.7,102.775 3.44,102.515 3.44,102.197 L3.44,4.374 C3.44,4.055 3.7,3.795 4.018,3.795 L101.842,3.795 C102.16,3.795 102.42,4.055 102.42,4.374 L102.42,102.197 L102.42,102.197 Z" id="Shape" fill="#000000"/>
                        <path d="M67.004,77.986 L38.992,77.986 C33.212,77.986 28.51,73.285 28.51,67.506 L28.51,39.495 C28.51,33.715 33.212,29.013 38.992,29.013 L67.004,29.013 C72.784,29.013 77.486,33.715 77.486,39.495 L77.486,67.506 C77.486,73.285 72.784,77.986 67.004,77.986 L67.004,77.986 Z M38.992,34.73 C36.364,34.73 34.227,36.867 34.227,39.495 L34.227,67.506 C34.227,70.133 36.364,72.27 38.992,72.27 L67.004,72.27 C69.632,72.27 71.768,70.133 71.768,67.506 L71.768,39.495 C71.768,36.867 69.632,34.73 67.004,34.73 L38.992,34.73 L38.992,34.73 Z" id="Shape" fill="url(#radialGradient-1)"/>
                        <path d="M52.998,67.027 C45.538,67.027 39.469,60.959 39.469,53.5 C39.469,46.039 45.538,39.971 52.998,39.971 C60.459,39.971 66.527,46.039 66.527,53.5 C66.527,60.959 60.459,67.027 52.998,67.027 L52.998,67.027 Z M52.998,45.688 C48.69,45.688 45.186,49.192 45.186,53.5 C45.186,57.806 48.691,61.31 52.998,61.31 C57.305,61.31 60.81,57.806 60.81,53.5 C60.81,49.192 57.306,45.688 52.998,45.688 L52.998,45.688 Z" id="Shape" fill="url(#radialGradient-2)"/>
                        <circle id="Oval" fill="url(#radialGradient-3)" cx="66.846" cy="40.394" r="2.436"/>
                    </g>
                </g>
            </g>
        </g>
    </g>
</svg>