<?xml version="1.0" encoding="UTF-8" standalone="no"?>
<svg width="106px" height="106px" viewBox="0 0 106 106" version="1.1" xmlns="http://www.w3.org/2000/svg" xmlns:xlink="http://www.w3.org/1999/xlink">
    <!-- Generator: sketchtool 39.1 (31720) - http://www.bohemiancoding.com/sketch -->
    <title>2E09AACC-C507-40DF-8387-5A97D2A7A8D0</title>
    <desc>Created with sketchtool.</desc>
    <defs>
        <linearGradient x1="49.9975938%" y1="-0.000244367333%" x2="49.9975938%" y2="100.002932%" id="linearGradient-1">
            <stop stop-color="#E52D27" offset="0%"/>
            <stop stop-color="#BF171D" offset="100%"/>
        </linearGradient>
    </defs>
    <g id="Page-1" stroke="none" stroke-width="1" fill="none" fill-rule="evenodd">
        <g id="logos-iconos" transform="translate(-761.000000, -422.000000)">
            <g id="Group-23" transform="translate(761.000000, 422.000000)">
                <g id="icons-youtube">
                    <g id="Layer_1">
                        <g id="Lozenge_10_" transform="translate(23.000000, 32.000000)" fill="url(#linearGradient-1)">
                            <path d="M58.486,9.374 C58.486,9.374 57.917,5.365 56.173,3.599 C53.961,1.282 51.481,1.271 50.343,1.134 C42.201,0.546 29.989,0.546 29.989,0.546 L29.963,0.546 C29.963,0.546 17.75,0.546 9.608,1.134 C8.47,1.271 5.992,1.281 3.778,3.599 C2.034,5.366 1.466,9.374 1.466,9.374 C1.466,9.374 0.884,14.082 0.884,18.792 L0.884,23.205 C0.884,27.914 1.466,32.622 1.466,32.622 C1.466,32.622 2.033,36.632 3.778,38.397 C5.992,40.714 8.899,40.641 10.194,40.884 C14.849,41.33 29.976,41.468 29.976,41.468 C29.976,41.468 42.203,41.449 50.344,40.862 C51.482,40.726 53.962,40.715 56.174,38.397 C57.918,36.631 58.487,32.622 58.487,32.622 C58.487,32.622 59.067,27.914 59.067,23.205 L59.067,18.792 C59.066,14.082 58.486,9.374 58.486,9.374 L58.486,9.374 Z M23.969,28.555 L23.965,12.206 L39.688,20.408 L23.969,28.555 L23.969,28.555 Z" id="Shape"/>
                        </g>
                        <path d="M101.842,0.877 L4.018,0.877 C2.09,0.877 0.522,2.445 0.522,4.374 L0.522,102.197 C0.522,104.125 2.09,105.693 4.018,105.693 L101.842,105.693 C103.77,105.693 105.338,104.125 105.338,102.197 L105.338,4.374 C105.338,2.445 103.77,0.877 101.842,0.877 L101.842,0.877 Z M102.42,102.197 C102.42,102.515 102.16,102.775 101.842,102.775 L4.018,102.775 C3.7,102.775 3.44,102.515 3.44,102.197 L3.44,4.374 C3.44,4.055 3.7,3.795 4.018,3.795 L101.842,3.795 C102.16,3.795 102.42,4.055 102.42,4.374 L102.42,102.197 L102.42,102.197 Z" id="Shape" fill="#000000"/>
                        <polygon id="Triangle" fill="#FFFFFF" points="46.965 60.555 62.688 52.409 46.965 44.207"/>
                        <polygon id="The_Sharpness_5_" fill="#420000" opacity="0.12" points="46.965 44.206 60.753 53.413 62.688 52.408"/>
                    </g>
                </g>
            </g>
        </g>
    </g>
</svg>