<?xml version="1.0" encoding="UTF-8" standalone="no"?>
<svg width="106px" height="106px" viewBox="0 0 106 106" version="1.1" xmlns="http://www.w3.org/2000/svg" xmlns:xlink="http://www.w3.org/1999/xlink">
    <!-- Generator: sketchtool 39.1 (31720) - http://www.bohemiancoding.com/sketch -->
    <title>01274B6F-360E-47BB-A2CA-B4B6021E36F1</title>
    <desc>Created with sketchtool.</desc>
    <defs/>
    <g id="Page-1" stroke="none" stroke-width="1" fill="none" fill-rule="evenodd">
        <g id="logos-iconos" transform="translate(-271.000000, -607.000000)">
            <g id="Group-14" transform="translate(271.000000, 607.000000)">
                <g id="icons-twitter">
                    <g id="Layer_1">
                        <path d="M101.842,0.877 L4.018,0.877 C2.09,0.877 0.522,2.445 0.522,4.374 L0.522,102.197 C0.522,104.125 2.09,105.693 4.018,105.693 L101.842,105.693 C103.77,105.693 105.338,104.125 105.338,102.197 L105.338,4.374 C105.338,2.445 103.77,0.877 101.842,0.877 L101.842,0.877 Z" id="Shape" fill="#1DA1F3"/>
                        <path d="M42.695,76.77 L42.697,78.274 L42.697,76.782 C59.498,76.782 76.876,63.997 76.876,42.601 C76.876,42.093 76.877,41.588 76.842,41.084 L76.783,40.252 L77.459,39.763 C78.406,39.079 79.297,38.33 80.129,37.523 C79.283,37.708 78.429,37.851 77.567,37.953 L70.624,38.768 L76.622,35.176 C77.653,34.557 78.568,33.782 79.339,32.886 C78.006,33.379 76.635,33.767 75.232,34.043 L74.418,34.203 L73.85,33.599 C71.828,31.449 69.09,30.214 66.14,30.123 C63.212,30.045 60.382,31.096 58.23,33.118 C55.374,35.805 54.149,39.847 55.035,43.667 L55.484,45.604 L53.499,45.504 C43.802,45.018 34.68,40.729 28.123,33.645 C26.541,38.291 28.223,43.578 32.446,46.398 L36.79,49.297 L31.569,49.144 C30.238,49.105 28.915,48.873 27.65,48.459 C28.532,52.714 31.891,56.169 36.278,57.056 L42.49,58.312 L36.375,59.974 C35.187,60.297 33.952,60.461 32.72,60.465 C34.634,63.749 38.151,65.876 42.063,65.949 L46.268,66.028 L42.961,68.628 C39.094,71.67 34.422,73.58 29.555,74.149 C33.683,75.874 38.124,76.769 42.648,76.769 C42.663,76.77 42.679,76.77 42.695,76.77 L42.695,76.77 Z" id="Shape" fill="#FFFFFF"/>
                    </g>
                </g>
            </g>
        </g>
    </g>
</svg>