<?xml version="1.0" encoding="UTF-8" standalone="no"?>
<svg width="112px" height="104px" viewBox="0 0 112 104" version="1.1" xmlns="http://www.w3.org/2000/svg" xmlns:xlink="http://www.w3.org/1999/xlink">
    <!-- Generator: sketchtool 39.1 (31720) - http://www.bohemiancoding.com/sketch -->
    <title>919853C2-C028-4467-855C-239B6F4CDAB8</title>
    <desc>Created with sketchtool.</desc>
    <defs/>
    <g id="Page-1" stroke="none" stroke-width="1" fill="none" fill-rule="evenodd">
        <g id="logos-iconos" transform="translate(-1182.000000, -572.000000)" fill="#000000">
            <g id="Group-24" transform="translate(1182.000000, 572.000000)">
                <g id="icons-calendario">
                    <g id="Layer_1">
                        <g id="Group">
                            <path d="M85.107,13.363 L85.107,0.192 L81.671,0.192 L81.671,13.363 L30.871,13.363 L30.871,0.192 L27.434,0.192 L27.434,13.363 L0.586,13.363 L0.586,104 L111.957,104 L111.957,13.363 L85.107,13.363 L85.107,13.363 Z M27.434,16.799 L27.434,27.841 L30.871,27.841 L30.871,16.799 L81.672,16.799 L81.672,27.841 L85.108,27.841 L85.108,16.799 L108.522,16.799 L108.522,36.106 L4.022,36.106 L4.022,16.799 L27.434,16.799 L27.434,16.799 Z M4.022,100.564 L4.022,39.542 L108.522,39.542 L108.522,100.565 L4.022,100.565 L4.022,100.564 Z" id="Shape"/>
                            <path d="M61.055,67.082 C62.026,66.775 62.905,66.383 63.69,65.906 C64.473,65.429 65.143,64.849 65.696,64.166 C66.251,63.486 66.676,62.689 66.975,61.775 C67.274,60.865 67.422,59.83 67.422,58.668 C67.422,57.254 67.158,55.969 66.629,54.809 C66.1,53.649 65.363,52.659 64.416,51.842 C63.471,51.024 62.342,50.393 61.029,49.949 C59.716,49.505 58.283,49.284 56.732,49.284 C55.163,49.284 53.701,49.511 52.346,49.963 C50.992,50.413 49.79,51.075 48.742,51.944 C47.692,52.813 46.827,53.891 46.145,55.178 C45.463,56.467 45.002,57.946 44.764,59.616 L47.143,60.026 C47.772,60.11 48.254,60.055 48.587,59.858 C48.92,59.663 49.195,59.266 49.418,58.669 C49.588,57.868 49.879,57.136 50.287,56.47 C50.697,55.806 51.205,55.232 51.809,54.743 C52.413,54.259 53.113,53.88 53.905,53.606 C54.699,53.334 55.555,53.197 56.476,53.197 C57.397,53.197 58.253,53.324 59.046,53.58 C59.839,53.836 60.525,54.219 61.105,54.73 C61.685,55.241 62.14,55.89 62.472,56.673 C62.804,57.456 62.972,58.378 62.972,59.435 C62.972,60.39 62.814,61.259 62.497,62.044 C62.183,62.829 61.681,63.501 60.989,64.064 C60.297,64.627 59.403,65.07 58.305,65.394 C57.203,65.718 55.87,65.888 54.302,65.906 L54.302,69.205 C56.211,69.205 57.776,69.375 58.995,69.717 C60.214,70.059 61.173,70.528 61.872,71.123 C62.571,71.721 63.048,72.428 63.304,73.246 C63.56,74.064 63.689,74.969 63.689,75.957 C63.689,76.758 63.527,77.568 63.201,78.387 C62.879,79.203 62.398,79.946 61.758,80.612 C61.119,81.276 60.319,81.817 59.354,82.237 C58.391,82.653 57.27,82.862 55.99,82.862 C54.61,82.862 53.472,82.649 52.577,82.223 C51.683,81.797 50.945,81.276 50.365,80.662 C49.786,80.049 49.329,79.408 48.997,78.744 C48.665,78.078 48.388,77.508 48.166,77.029 C47.943,76.57 47.59,76.289 47.105,76.187 C46.618,76.083 46.12,76.144 45.608,76.367 L43.638,77.183 C44.065,78.546 44.584,79.814 45.2,80.98 C45.813,82.15 46.596,83.158 47.552,84.011 C48.508,84.864 49.675,85.532 51.056,86.019 C52.438,86.505 54.099,86.748 56.043,86.748 C57.731,86.748 59.311,86.496 60.786,85.994 C62.261,85.492 63.554,84.765 64.661,83.818 C65.768,82.873 66.643,81.728 67.282,80.38 C67.921,79.034 68.241,77.515 68.241,75.827 C68.241,73.595 67.639,71.731 66.438,70.239 C65.236,68.75 63.441,67.695 61.055,67.082 L61.055,67.082 Z" id="Shape"/>
                        </g>
                    </g>
                </g>
            </g>
        </g>
    </g>
</svg>